<svg width="34" height="33" viewBox="0 0 34 33" fill="none" xmlns="http://www.w3.org/2000/svg">
<g clip-path="url(#clip0_65_1020)">
<path fill-rule="evenodd" clip-rule="evenodd" d="M16.7594 29.8532C24.3522 29.8532 30.5074 23.698 30.5074 16.1052C30.5074 8.51235 24.3522 2.35714 16.7594 2.35714C9.16656 2.35714 3.01135 8.51235 3.01135 16.1052C3.01135 23.698 9.16656 29.8532 16.7594 29.8532ZM18.5661 11.3901L8.7377 15.5881L8.73715 15.5887C7.00768 16.2883 8.02018 16.9442 8.02018 16.9442C8.02018 16.9442 9.4968 17.4685 10.7622 17.8622C12.0275 18.256 12.7023 17.8185 12.7023 17.8185L18.6499 13.6641C20.7592 12.177 20.2529 13.4014 19.7467 13.9263C18.6504 15.0633 16.8367 16.8562 15.3179 18.2991C14.6431 18.9113 14.9808 19.4361 15.2758 19.6983C16.1343 20.4516 18.1561 21.821 19.0746 22.4431C19.3294 22.6158 19.4993 22.7308 19.5359 22.7593C19.7472 22.9341 20.9283 23.721 21.6452 23.5463C22.3622 23.3715 22.4465 22.3655 22.4465 22.3655L23.5011 15.5002C23.596 14.8483 23.6908 14.2103 23.7791 13.6164C24.0048 12.0984 24.1878 10.8678 24.2181 10.4278C24.3451 8.94125 22.8263 9.55345 22.8263 9.55345C22.8263 9.55345 19.5365 10.9526 18.5661 11.3901Z" fill="white"/>
</g>
<defs>
<clipPath id="clip0_65_1020">
<rect width="33" height="33" fill="white" transform="translate(0.654175)"/>
</clipPath>
</defs>
</svg>
